<svg width="237" height="64" viewBox="0 0 237 64" fill="none" xmlns="http://www.w3.org/2000/svg">
<path d="M61.7581 41.2636C62.6032 38.4269 63.0635 35.4203 63.0635 32.3068C63.0635 31.9609 63.0509 31.6212 63.0383 31.2753C50.9112 24.1174 41.767 8.78268 37.939 1.50528C35.8705 1.07757 33.7264 0.857422 31.5318 0.857422C29.3372 0.857422 27.338 1.07128 25.3326 1.46754C23.6236 4.68796 20.8677 9.49972 17.2479 14.4876C13.0731 20.2428 7.08834 27.124 0.0252254 31.3005C0.0126127 31.6338 0 31.9672 0 32.3068C0 35.4266 0.460364 38.4395 1.31172 41.2825C6.5523 38.8232 11.3073 35.1813 15.4884 31.074C12.5055 38.1124 9.18205 44.9432 5.71986 50.3588C7.58654 53.0131 9.85683 55.3656 12.4361 57.328C16.2199 51.8055 20.0416 44.5407 23.8759 35.565C22.52 44.7986 20.5524 52.8811 17.7145 60.5862C20.5272 61.9574 23.5795 62.9197 26.7894 63.404C28.82 58.2337 30.4218 53.0949 31.6831 46.4088C32.9507 53.0698 34.5588 58.196 36.5895 63.3474C39.7868 62.8317 42.8201 61.8379 45.6138 60.4415C42.8706 53.0131 40.9408 45.2263 39.5787 36.2632C43.2994 44.8929 47.0139 51.9061 50.6842 57.2777C53.2635 55.3089 55.5274 52.944 57.3878 50.2833C53.9508 44.8866 50.6526 38.1061 47.6886 31.1181C51.8382 35.2002 56.5491 38.8169 61.7518 41.2636H61.7581Z" fill="#0B2D19"/>
<path d="M233.015 46.1237C233.015 46.9608 233.114 47.5587 233.314 47.9175C233.553 48.2763 233.991 48.4556 234.629 48.4556C234.829 48.4556 235.068 48.4556 235.347 48.4556C235.626 48.4556 235.945 48.4158 236.303 48.3361V53.0597C236.064 53.1394 235.745 53.2192 235.347 53.2989C234.988 53.4185 234.609 53.5181 234.211 53.5978C233.812 53.6776 233.413 53.7374 233.015 53.7772C232.616 53.8171 232.277 53.837 231.998 53.837C230.603 53.837 229.447 53.558 228.53 52.9999C227.614 52.4418 227.016 51.4652 226.737 50.0701C225.381 51.3855 223.707 52.3422 221.714 52.9401C219.761 53.5381 217.867 53.837 216.034 53.837C214.638 53.837 213.303 53.6377 212.027 53.2391C210.752 52.8803 209.616 52.3422 208.619 51.6247C207.663 50.8673 206.885 49.9305 206.287 48.8144C205.729 47.6584 205.45 46.323 205.45 44.8083C205.45 42.8949 205.789 41.3402 206.467 40.1444C207.184 38.9485 208.101 38.0118 209.217 37.3341C210.373 36.6565 211.649 36.1781 213.044 35.8991C214.479 35.5802 215.914 35.341 217.349 35.1816C218.585 34.9424 219.761 34.7829 220.877 34.7032C221.993 34.5836 222.97 34.4043 223.807 34.1651C224.684 33.9259 225.361 33.5671 225.84 33.0888C226.358 32.5706 226.617 31.8132 226.617 30.8167C226.617 29.9397 226.398 29.2222 225.959 28.6641C225.561 28.106 225.042 27.6875 224.405 27.4084C223.807 27.0896 223.129 26.8902 222.372 26.8105C221.614 26.6909 220.897 26.6311 220.219 26.6311C218.306 26.6311 216.731 27.0298 215.495 27.827C214.26 28.6242 213.562 29.86 213.403 31.5342H206.586C206.706 29.5411 207.184 27.8868 208.021 26.5713C208.858 25.2559 209.915 24.1996 211.19 23.4023C212.506 22.6051 213.981 22.047 215.615 21.7281C217.249 21.4092 218.924 21.2498 220.638 21.2498C222.152 21.2498 223.647 21.4092 225.122 21.7281C226.597 22.047 227.912 22.5652 229.068 23.2827C230.264 24.0002 231.221 24.937 231.939 26.093C232.656 27.2091 233.015 28.5844 233.015 30.2187V46.1237ZM226.198 37.5135C225.162 38.1911 223.886 38.6097 222.372 38.7691C220.857 38.8887 219.342 39.088 217.827 39.3671C217.11 39.4867 216.412 39.666 215.735 39.9052C215.057 40.1045 214.459 40.4035 213.941 40.8021C213.423 41.1609 213.004 41.6592 212.685 42.2969C212.406 42.8949 212.267 43.6323 212.267 44.5093C212.267 45.2667 212.486 45.9045 212.924 46.4227C213.363 46.9409 213.881 47.3594 214.479 47.6783C215.117 47.9574 215.794 48.1567 216.512 48.2763C217.269 48.3958 217.947 48.4556 218.545 48.4556C219.302 48.4556 220.119 48.356 220.996 48.1567C221.873 47.9574 222.691 47.6185 223.448 47.1402C224.245 46.6618 224.903 46.0639 225.421 45.3464C225.939 44.589 226.198 43.6722 226.198 42.5959V37.5135Z" fill="#0B2D19"/>
<path d="M186.104 22.0869H192.501V28.0662H192.621C192.82 27.2291 193.199 26.4119 193.757 25.6147C194.355 24.8174 195.053 24.0999 195.85 23.4621C196.687 22.7844 197.604 22.2463 198.6 21.8477C199.597 21.4491 200.613 21.2498 201.65 21.2498C202.447 21.2498 202.985 21.2697 203.264 21.3095C203.583 21.3494 203.902 21.3893 204.221 21.4291V28.0064C203.742 27.9267 203.244 27.8669 202.726 27.827C202.248 27.7473 201.769 27.7074 201.291 27.7074C200.135 27.7074 199.039 27.9466 198.002 28.4249C197.006 28.8634 196.129 29.5411 195.371 30.4579C194.614 31.3349 194.016 32.4311 193.578 33.7465C193.139 35.062 192.92 36.5767 192.92 38.2908V52.9999H186.104V22.0869Z" fill="#0B2D19"/>
<path d="M164.831 53.837C162.359 53.837 160.147 53.4384 158.194 52.6412C156.28 51.8041 154.646 50.668 153.291 49.2329C151.975 47.7979 150.959 46.0838 150.241 44.0907C149.563 42.0976 149.225 39.9052 149.225 37.5135C149.225 35.1616 149.563 32.9891 150.241 30.996C150.959 29.0029 151.975 27.2889 153.291 25.8538C154.646 24.4188 156.28 23.3027 158.194 22.5054C160.147 21.6683 162.359 21.2498 164.831 21.2498C167.302 21.2498 169.494 21.6683 171.408 22.5054C173.361 23.3027 174.995 24.4188 176.311 25.8538C177.666 27.2889 178.683 29.0029 179.36 30.996C180.078 32.9891 180.437 35.1616 180.437 37.5135C180.437 39.9052 180.078 42.0976 179.36 44.0907C178.683 46.0838 177.666 47.7979 176.311 49.2329C174.995 50.668 173.361 51.8041 171.408 52.6412C169.494 53.4384 167.302 53.837 164.831 53.837ZM164.831 48.4556C166.345 48.4556 167.661 48.1367 168.777 47.4989C169.893 46.8612 170.81 46.024 171.527 44.9876C172.245 43.9512 172.763 42.7952 173.082 41.5196C173.441 40.2042 173.62 38.8688 173.62 37.5135C173.62 36.198 173.441 34.8826 173.082 33.5671C172.763 32.2517 172.245 31.0957 171.527 30.0991C170.81 29.0627 169.893 28.2256 168.777 27.5878C167.661 26.95 166.345 26.6311 164.831 26.6311C163.316 26.6311 162 26.95 160.884 27.5878C159.768 28.2256 158.851 29.0627 158.134 30.0991C157.416 31.0957 156.878 32.2517 156.519 33.5671C156.2 34.8826 156.041 36.198 156.041 37.5135C156.041 38.8688 156.2 40.2042 156.519 41.5196C156.878 42.7952 157.416 43.9512 158.134 44.9876C158.851 46.024 159.768 46.8612 160.884 47.4989C162 48.1367 163.316 48.4556 164.831 48.4556Z" fill="#0B2D19"/>
<path d="M136.417 10.3076H143.233V52.9999H136.417V10.3076Z" fill="#0B2D19"/>
<path d="M121.994 10.3076H128.811V52.9999H121.994V10.3076Z" fill="#0B2D19"/>
<path d="M94.3101 10.3076H102.263L118.706 52.9999H110.693L106.687 41.699H89.6462L85.6401 52.9999H77.9268L94.3101 10.3076ZM91.6792 36.0187H104.714L98.3162 17.6622H98.1368L91.6792 36.0187Z" fill="#0B2D19"/>
</svg>
